<svg width="200" height="200" viewBox="0 0 200 200" fill="none" xmlns="http://www.w3.org/2000/svg">
<path d="M175.237 135.468C169.444 135.468 173.935 135.468 168.142 135.468C162.658 135.468 157.173 135.572 151.62 135.468C147.679 135.468 144.628 133.746 144.628 129.336C144.628 124.926 147.679 123.307 151.62 123.307C162.863 123.307 163.994 123.307 175.237 123.307" fill="#2FA6DF"/>
<path d="M158.614 99.1904C152.821 99.2938 156.18 99.1904 150.387 99.1904C144.594 99.1904 138.836 99.2938 133.043 99.1904C128.998 99.087 126.153 97.0544 126.359 92.7823C126.462 88.9237 129.101 86.8566 132.837 86.8566C144.594 86.7532 147.337 86.7532 159.094 86.8566" fill="#87C540"/>
<path d="M141.475 117.243C135.682 117.243 129.923 117.243 124.131 117.243C120.394 117.243 117.652 115.521 117.447 111.524C117.241 107.149 120.189 105.219 124.233 105.219C135.476 105.116 146.856 105.116 158.099 105.219C162.144 105.219 165.194 106.942 165.091 111.352C165.091 115.727 161.938 117.278 157.893 117.381C152.512 117.243 147.062 117.243 141.475 117.243Z" fill="#FEDA46"/>
<path d="M132.254 135.365C128.792 134.848 126.564 133.022 126.564 129.543C126.564 125.787 128.792 123.41 132.563 123.513C136.025 123.617 138.15 125.753 138.253 129.233C138.219 133.126 135.888 134.986 132.254 135.365Z" fill="#2FA6DF"/>
<path d="M172.29 108.355C169.651 104.289 166.121 100.913 162.042 98.3635C162.042 97.8467 162.042 97.4333 162.042 96.951C162.042 88.0968 158.477 80.035 152.718 74.316C146.925 68.4936 138.939 64.945 130.198 64.945C127.97 64.945 125.742 65.1518 123.617 65.6685C122.795 65.8752 121.903 66.082 121.081 66.2887C116.419 61.2931 110.935 57.1244 104.765 54.1616C97.6696 50.6474 89.6488 48.7181 81.2167 48.7181C70.1453 48.7181 59.8279 52.0944 51.1902 57.779C43.0665 63.188 36.5882 70.6296 32.3379 79.4838C32.1322 79.5872 31.9266 79.5872 31.8237 79.5872H44.609C47.8653 74.4883 52.2185 70.1128 57.1886 66.7365C64.0783 62.1544 72.3047 59.5016 81.2167 59.5016C88.0035 59.5016 94.4133 61.0175 100.069 63.7737C105.965 66.6332 111.14 70.8019 115.288 75.9008L117.824 79.1737L121.561 77.5545C122.863 76.9343 124.303 76.5209 125.708 76.2453C127.113 75.9352 128.553 75.8319 130.061 75.8319C135.957 75.8319 141.201 78.1746 145.075 82.0332C148.948 85.8919 151.244 91.1975 151.244 97.1232C151.244 97.7434 151.244 98.3635 151.142 98.9492C151.039 99.5349 151.039 100.189 150.936 100.775L150.216 104.84L154.055 106.563C157.791 108.182 161.048 111.042 163.173 114.418C165.298 117.691 166.532 121.653 166.532 126.028C166.532 131.954 164.201 137.225 160.362 141.015C156.523 144.874 151.244 147.216 145.349 147.216H81.0453H61.4732V153.831H24.7627C30.1442 156.484 36.1083 158 42.5181 158H81.251H145.554C154.261 158 162.384 154.417 168.177 148.629C173.97 142.807 177.5 134.883 177.5 125.994C177.466 119.379 175.547 113.35 172.29 108.355Z" fill="url(#paint0_linear_4780_7823)"/>
<path d="M47.1455 157.897L87.4208 64.0149L100.789 69.6306L60.6506 157.897" fill="#87C540"/>
<path fill-rule="evenodd" clip-rule="evenodd" d="M103.429 42L106.171 58.2958L108.81 74.6261L93.3854 68.7003L77.9951 62.9124L90.7461 52.5079L103.429 42Z" fill="#87C540"/>
<path d="M36.3818 157.414L60.4099 95.8485L73.8122 101.361L51.3951 157.793C43.8885 158.103 37.6158 157.793 36.3818 157.414Z" fill="#FEDA46"/>
<path fill-rule="evenodd" clip-rule="evenodd" d="M76.4514 73.7992L79.0907 90.0261L81.73 106.322L66.3055 100.5L50.8809 94.7116L63.6661 84.2037L76.4514 73.7992Z" fill="#FEDA46"/>
<path d="M22.5 152.419L33.0573 128.681L46.4595 134.194L36.4164 157.449C31.3092 156.587 26.7503 154.934 22.5 152.419Z" fill="#2FA6DF"/>
<path fill-rule="evenodd" clip-rule="evenodd" d="M49.0644 106.632L51.7037 122.928L54.343 139.258L39.0213 133.436L23.5967 127.544L36.382 117.14L49.0644 106.632Z" fill="#2FA6DF"/>
<defs>
<linearGradient id="paint0_linear_4780_7823" x1="24.7627" y1="103.359" x2="177.5" y2="103.359" gradientUnits="userSpaceOnUse">
<stop offset="0.0532" stop-color="#384EA2"/>
<stop offset="0.2599" stop-color="#3665B0"/>
<stop offset="0.6885" stop-color="#3293D0"/>
<stop offset="0.8842" stop-color="#2FA6DF"/>
</linearGradient>
</defs>
</svg>
