<svg width="155" height="117" viewBox="0 0 155 117" fill="none" xmlns="http://www.w3.org/2000/svg">
<path d="M152.737 94.3717C146.944 94.3717 151.435 94.3717 145.642 94.3717C140.158 94.3717 134.673 94.4751 129.12 94.3717C125.179 94.3717 122.128 92.6491 122.128 88.2392C122.128 83.8294 125.179 82.2101 129.12 82.2101C140.363 82.2101 141.494 82.2101 152.737 82.2101" fill="#2FA6DF"/>
<path d="M136.114 58.0937C130.321 58.1971 133.68 58.0937 127.887 58.0937C122.094 58.0937 116.336 58.1971 110.543 58.0937C106.498 57.9904 103.653 55.9577 103.859 51.6856C103.962 47.827 106.601 45.7599 110.337 45.7599C122.094 45.6565 124.837 45.6565 136.594 45.7599" fill="#87C540"/>
<path d="M118.975 76.1466C113.182 76.1466 107.423 76.1466 101.631 76.1466C97.8945 76.1466 95.1523 74.424 94.9467 70.4275C94.741 66.0521 97.6888 64.1228 101.733 64.1228C112.976 64.0194 124.356 64.0194 135.599 64.1228C139.644 64.1228 142.694 65.8454 142.591 70.2553C142.591 74.6307 139.438 76.181 135.393 76.2844C130.012 76.1466 124.562 76.1466 118.975 76.1466Z" fill="#FEDA46"/>
<path d="M109.754 94.2684C106.292 93.7516 104.064 91.9256 104.064 88.446C104.064 84.6907 106.292 82.3135 110.063 82.4169C113.525 82.5202 115.65 84.6563 115.753 88.1359C115.719 92.029 113.388 93.8894 109.754 94.2684Z" fill="#2FA6DF"/>
<path d="M149.79 67.258C147.151 63.1926 143.621 59.8163 139.542 57.2669C139.542 56.7501 139.542 56.3367 139.542 55.8544C139.542 47.0002 135.977 38.9384 130.218 33.2194C124.425 27.397 116.439 23.8484 107.698 23.8484C105.47 23.8484 103.242 24.0551 101.117 24.5719C100.295 24.7786 99.4034 24.9853 98.5807 25.1921C93.9191 20.1965 88.4348 16.0278 82.2649 13.0649C75.1696 9.55083 67.1488 7.62152 58.7167 7.62152C47.6453 7.62152 37.3279 10.9978 28.6902 16.6824C20.5665 22.0914 14.0882 29.533 9.83789 38.3872C9.63223 38.4905 9.42656 38.4905 9.32373 38.4905H22.109C25.3653 33.3916 29.7185 29.0162 34.6886 25.6399C41.5783 21.0578 49.8047 18.405 58.7167 18.405C65.5035 18.405 71.9133 19.9209 77.569 22.6771C83.4646 25.5366 88.6404 29.7053 92.7879 34.8042L95.3244 38.0771L99.0606 36.4579C100.363 35.8377 101.803 35.4243 103.208 35.1487C104.613 34.8386 106.053 34.7353 107.561 34.7353C113.457 34.7353 118.701 37.078 122.575 40.9366C126.448 44.7953 128.744 50.1009 128.744 56.0266C128.744 56.6468 128.744 57.2669 128.642 57.8526C128.539 58.4383 128.539 59.0928 128.436 59.6785L127.716 63.7439L131.555 65.4665C135.291 67.0857 138.548 69.9452 140.673 73.3215C142.798 76.5945 144.032 80.5565 144.032 84.9319C144.032 90.8576 141.701 96.1288 137.862 99.9185C134.023 103.777 128.744 106.12 122.849 106.12H58.5453H38.9732V112.735H2.2627C7.64416 115.387 13.6083 116.903 20.0181 116.903H58.751H123.054C131.761 116.903 139.884 113.32 145.677 107.532C151.47 101.71 155 93.786 155 84.8974C154.966 78.2826 153.047 72.2535 149.79 67.258Z" fill="url(#paint0_linear_440_3624)"/>
<path d="M24.6455 116.8L64.9208 22.9182L78.2888 28.5339L38.1506 116.8" fill="#87C540"/>
<path fill-rule="evenodd" clip-rule="evenodd" d="M80.9286 0.903381L83.6707 17.1992L86.31 33.5294L70.8854 27.6037L55.4951 21.8158L68.2461 11.4113L80.9286 0.903381Z" fill="#87C540"/>
<path d="M13.8818 116.318L37.9099 54.7519L51.3122 60.2642L28.8951 116.697C21.3885 117.007 15.1158 116.697 13.8818 116.318Z" fill="#FEDA46"/>
<path fill-rule="evenodd" clip-rule="evenodd" d="M53.9514 32.7026L56.5907 48.9295L59.23 65.2253L43.8055 59.4029L28.3809 53.615L41.1661 43.1071L53.9514 32.7026Z" fill="#FEDA46"/>
<path d="M0 111.322L10.5573 87.5847L23.9595 93.097L13.9164 116.352C8.80915 115.491 4.25033 113.837 0 111.322Z" fill="#2FA6DF"/>
<path fill-rule="evenodd" clip-rule="evenodd" d="M26.5644 65.5354L29.2037 81.8312L31.843 98.1615L16.5213 92.3391L1.09668 86.4478L13.882 76.0433L26.5644 65.5354Z" fill="#2FA6DF"/>
<defs>
<linearGradient id="paint0_linear_440_3624" x1="2.2627" y1="62.2624" x2="155" y2="62.2624" gradientUnits="userSpaceOnUse">
<stop offset="0.0532" stop-color="#384EA2"/>
<stop offset="0.2599" stop-color="#3665B0"/>
<stop offset="0.6885" stop-color="#3293D0"/>
<stop offset="0.8842" stop-color="#2FA6DF"/>
</linearGradient>
</defs>
</svg>
