<svg width="453" height="337" viewBox="0 0 453 337" fill="none" xmlns="http://www.w3.org/2000/svg">
<path d="M445.6 271.6C428.7 271.6 441.8 271.6 424.9 271.6C408.9 271.6 392.9 271.9 376.7 271.6C365.2 271.6 356.3 266.6 356.3 253.8C356.3 241 365.2 236.3 376.7 236.3C409.5 236.3 412.8 236.3 445.6 236.3" fill="#2FA6DF"/>
<path d="M397.1 166.3C380.2 166.6 390 166.3 373.1 166.3C356.2 166.3 339.4 166.6 322.5 166.3C310.7 166 302.4 160.1 303 147.7C303.3 136.5 311 130.5 321.9 130.5C356.2 130.2 364.2 130.2 398.5 130.5" fill="#87C540"/>
<path d="M347.1 218.7C330.2 218.7 313.4 218.7 296.5 218.7C285.6 218.7 277.6 213.7 277 202.1C276.4 189.4 285 183.8 296.8 183.8C329.6 183.5 362.8 183.5 395.6 183.8C407.4 183.8 416.3 188.8 416 201.6C416 214.3 406.8 218.8 395 219.1C379.3 218.7 363.4 218.7 347.1 218.7Z" fill="#FEDA46"/>
<path d="M320.201 271.3C310.101 269.8 303.601 264.5 303.601 254.4C303.601 243.5 310.101 236.6 321.101 236.9C331.201 237.2 337.401 243.4 337.701 253.5C337.601 264.8 330.801 270.2 320.201 271.3Z" fill="#2FA6DF"/>
<path d="M437 192.9C429.3 181.1 419 171.3 407.1 163.9C407.1 162.4 407.1 161.2 407.1 159.8C407.1 134.1 396.7 110.7 379.9 94.1C363 77.2 339.7 66.9 314.2 66.9C307.7 66.9 301.2 67.5 295 69C292.6 69.6 290 70.2001 287.6 70.8C274 56.3 258 44.2 240 35.6C219.3 25.4 195.9 19.8 171.3 19.8C139 19.8 108.9 29.6 83.6996 46.1C59.9996 61.8 41.0996 83.4 28.6996 109.1C28.0996 109.4 27.4996 109.4 27.1996 109.4H64.4996C73.9996 94.6 86.6996 81.9 101.2 72.1C121.3 58.8 145.3 51.1 171.3 51.1C191.1 51.1 209.8 55.5 226.3 63.5C243.5 71.8 258.6 83.9 270.7 98.7L278.1 108.2L289 103.5C292.8 101.7 297 100.5 301.1 99.7C305.2 98.8 309.4 98.5 313.8 98.5C331 98.5 346.3 105.3 357.6 116.5C368.9 127.7 375.6 143.1 375.6 160.3C375.6 162.1 375.6 163.9 375.3 165.6C375 167.3 375 169.2 374.7 170.9L372.6 182.7L383.8 187.7C394.7 192.4 404.2 200.7 410.4 210.5C416.6 220 420.2 231.5 420.2 244.2C420.2 261.4 413.4 276.7 402.2 287.7C391 298.9 375.6 305.7 358.4 305.7H170.8H113.7V324.9H6.59961C22.2996 332.6 39.6996 337 58.3996 337H171.4H359C384.4 337 408.1 326.6 425 309.8C441.9 292.9 452.2 269.9 452.2 244.1C452.1 224.9 446.5 207.4 437 192.9Z" fill="url(#paint0_linear_3_1201)"/>
<path d="M71.9004 336.7L189.4 64.2001L228.4 80.5001L111.3 336.7" fill="#87C540"/>
<path fill-rule="evenodd" clip-rule="evenodd" d="M236.1 0.300049L244.1 47.6L251.8 95L206.8 77.8L161.9 61L199.1 30.8L236.1 0.300049Z" fill="#87C540"/>
<path d="M40.5 335.3L110.6 156.6L149.7 172.6L84.3 336.4C62.4 337.3 44.1 336.4 40.5 335.3Z" fill="#FEDA46"/>
<path fill-rule="evenodd" clip-rule="evenodd" d="M157.4 92.6L165.1 139.7L172.8 187L127.8 170.1L82.7998 153.3L120.1 122.8L157.4 92.6Z" fill="#FEDA46"/>
<path d="M0 320.8L30.8 251.9L69.9 267.9L40.6 335.4C25.7 332.9 12.4 328.1 0 320.8Z" fill="#2FA6DF"/>
<path fill-rule="evenodd" clip-rule="evenodd" d="M77.5002 187.9L85.2002 235.2L92.9002 282.6L48.2002 265.7L3.2002 248.6L40.5002 218.4L77.5002 187.9Z" fill="#2FA6DF"/>
<defs>
<linearGradient id="paint0_linear_3_1201" x1="6.59961" y1="178.4" x2="452.2" y2="178.4" gradientUnits="userSpaceOnUse">
<stop offset="0.0532" stop-color="#384EA2"/>
<stop offset="0.2599" stop-color="#3665B0"/>
<stop offset="0.6885" stop-color="#3293D0"/>
<stop offset="0.8842" stop-color="#2FA6DF"/>
</linearGradient>
</defs>
</svg>
